# xmcd CD database file
#
# Track frame offsets:
#	150
#	35827
#	75102
#	116892
#	148222
#	188465
#
# Disc length: 2968 seconds
#
# Revision: 2
# Processed by: cddbd v1.5.1PL2 Copyright (c) Steve Scherf et al.
# Submitted via: CDex 1.51
#
DISCID=4a0b9606
DTITLE=Charles Thompson  - Charles Thompson Live IN Yokohama 
DYEAR=1992
DGENRE=Jazz
TTITLE0=Love For Sale
TTITLE1=Stella By Starlight
TTITLE2=Softly As In A Morning Sunrise
TTITLE3=Tuen Us In
TTITLE4=My One And Only Love
TTITLE5=Jumpin'n With Symphony Sid
EXTD=YEAR: 1992
EXTT0=
EXTT1=
EXTT2=
EXTT3=
EXTT4=
EXTT5=
PLAYORDER=
